<?xml version="1.0" encoding="UTF-8"?>
<svg id="_图层_1" data-name="图层 1" xmlns="http://www.w3.org/2000/svg" viewBox="0 0 402.66 402.21">
  <path d="M402.66,85.67V231.94c-.24,.08-.5,.14-.72,.26-19.42,10.86-38.83,21.73-58.27,32.55-1.12,.62-1.13,1.41-1.13,2.41,.01,18.08-.02,36.17,.05,54.25,0,1.68-.54,2.52-1.98,3.33-45.43,25.35-90.83,50.75-136.23,76.15-.66,.37-1.23,.87-1.85,1.31h-.79c-.67-.4-1.32-.83-2.01-1.19-46.02-24.53-92.04-49.07-138.09-73.56-1.47-.78-1.97-1.64-1.96-3.32,.07-20.05,.03-40.1,.08-60.15,0-1.57-.42-2.39-1.91-3.11-18.73-9.06-37.41-18.21-56.13-27.29C.52,233.01,0,232.41,0,230.99c.04-50.39,.04-100.78,0-151.17,0-1.27,.34-1.95,1.51-2.58C48.51,51.74,95.48,26.21,142.43,.64c1.47-.8,2.53-.89,4.05-.03,18.64,10.51,37.34,20.92,55.99,31.42,1.55,.87,2.69,.89,4.25,.01,16.07-9.07,32.2-18.05,48.28-27.1,1.18-.66,2.01-.68,3.2-.01,39.68,22.24,79.37,44.44,119.07,66.64,8.45,4.72,16.92,9.4,25.39,14.11ZM92.18,117.73c.79,.46,1.34,.79,1.91,1.11,34.54,19.24,69.1,38.42,103.56,57.78,3.05,1.71,5.17,1.72,8.25,.04,52.59-28.77,105.26-57.4,157.91-86.06,.65-.35,1.28-.74,2.11-1.21-.75-.45-1.25-.76-1.76-1.04-13.42-7.51-26.87-14.98-40.25-22.56-1.54-.87-2.59-.76-4.06,.06-40.02,22.43-80.08,44.81-120.1,67.25-1.43,.8-2.43,.84-3.87-.04-5.58-3.42-11.26-6.67-16.9-9.99-.65-.39-1.29-.8-2.1-1.31,41.23-23.07,82.21-45.99,123.43-69.05-.87-.53-1.41-.88-1.97-1.19-13.31-7.45-26.63-14.88-39.9-22.38-1.38-.78-2.38-.71-3.73,.02-51.13,27.89-102.29,55.75-153.44,83.61-2.97,1.62-5.93,3.24-9.1,4.97Zm97.85,191.91v-7.42c0-34.4-.01-68.8,.04-103.21,0-1.52-.43-2.35-1.79-3.05-2.97-1.52-5.84-3.23-8.75-4.86-52.03-29.11-104.06-58.22-156.1-87.32-.52-.29-1.06-.56-1.81-.96,0,16.31-.01,32.23,.05,48.15,0,.53,.58,1.26,1.09,1.55,2.04,1.17,4.16,2.2,6.26,3.28,41.33,21.34,82.67,42.69,124.02,64.01,1.19,.61,1.73,1.26,1.66,2.68-.18,3.53-.18,7.07-.21,10.61-.03,3.7,0,7.41,0,11.58-44.59-23.02-88.59-45.73-132.86-68.58v2.62c0,13.11,.05,26.21-.05,39.32-.02,2.06,.65,3.05,2.45,4,47.13,24.81,94.23,49.69,141.33,74.56,8.09,4.27,16.18,8.55,24.69,13.04Zm21.77,62.91c.9-.47,1.42-.72,1.92-1,13.31-7.44,26.6-14.91,39.94-22.3,1.49-.82,2.08-1.69,2.07-3.47-.06-44.82-.04-89.65-.08-134.47,0-1.49,.37-2.32,1.76-3.03,6.05-3.11,12.04-6.36,18.05-9.55,.5-.27,1.03-.48,1.86-.87v138.08c.93-.5,1.56-.82,2.18-1.17,13.25-7.41,26.49-14.85,39.78-22.2,1.36-.75,1.75-1.58,1.75-3.06-.04-56.09-.03-112.19-.04-168.28,0-.68-.06-1.36-.11-2.3-.95,.5-1.63,.85-2.3,1.22-34.85,19.48-69.69,38.98-104.56,58.42-1.62,.9-2.29,1.82-2.28,3.75,.06,55.83,.05,111.66,.05,167.5v2.72ZM31.88,84.22c12.36,6.88,24.39,13.52,36.35,20.29,1.7,.96,2.92,.93,4.6,.03,33.58-18.12,67.19-36.17,100.79-54.24,3.03-1.63,6.06-3.27,9.28-5.01-.46-.33-.7-.53-.96-.68-12.11-6.78-24.21-13.57-36.36-20.27-.65-.36-1.89-.2-2.61,.19-33.57,17.99-67.12,36.03-100.66,54.07-3.39,1.82-6.77,3.66-10.43,5.63Zm349.21,20.97c-.88,.47-1.45,.76-2.01,1.07-11.59,6.49-23.16,13.01-34.77,19.46-1.29,.72-1.81,1.46-1.81,3.01,.05,36.75,.04,73.51,.04,110.26v2.2c.85-.42,1.43-.68,1.97-.98,11.48-6.42,22.94-12.88,34.45-19.24,1.55-.86,2.18-1.75,2.18-3.6-.06-36.56-.05-73.11-.05-109.67v-2.51ZM81.24,273.94c0,.98,0,1.62,0,2.25,0,12.06,.03,24.11-.04,36.17,0,1.57,.56,2.28,1.88,2.97,34.53,17.99,69.03,36.02,103.55,54.03,1.03,.54,2.07,1.04,3.4,1.72v-2.21c0-11.01-.04-22.02,.04-33.03,.01-1.59-.5-2.43-1.88-3.19-34.94-19.17-69.86-38.38-104.78-57.58-.61-.34-1.23-.65-2.16-1.15Z"/>
</svg>