<?xml version="1.0" encoding="UTF-8"?>
<svg id="_图层_1" data-name="图层 1" xmlns="http://www.w3.org/2000/svg" viewBox="0 0 349.94 350.03">
  <path d="M349.94,175c.2,97.7-80.42,176.75-178.19,175C77.65,348.32-.88,270.85,0,173.25,.88,77.25,79.88-1.04,177,.01c95.82,1.03,173.32,79.68,172.94,174.99Zm-193.97-3.6c0,40.49,0,80.97,0,121.46,0,1.25-.02,2.51,.11,3.74,.88,8.55,5.18,14.73,13.23,17.81,8.05,3.08,15.42,1.39,21.7-4.48,4.9-4.58,6.28-10.53,6.28-17.03-.03-80.31-.02-160.61-.03-240.92,0-1.83-.07-3.66-.21-5.49-1.04-14.05-15.96-22.95-28.74-17.05-8.56,3.95-12.34,11-12.34,20.25,0,40.57,0,81.14,0,121.71Zm-20.69,94.4V77.6c-33.99,14.38-63.06,51.06-61.52,97.78,1.44,43.54,29.96,77.39,61.52,90.42Zm82.61-.05c29.72-11.74,63.64-47.26,61.55-98.54-1.89-46.44-34.15-78.95-61.55-89.4v187.94Z"/>
</svg>